# xmcd
#
# Track frame offsets:
#	150
#	14335
#	28843
#	43977
#	58112
#	71803
#	84001
#	96480
#	114448
#	127430
#	139930
#	153787
#	167488
#	187546
#	201255
#
# Disc length: 2894 seconds
#
# Revision: 1
# Processed by: cddbd v1.5.2PL0 Copyright (c) Steve Scherf et al.
# Submitted via: audiograbber 1.83.01
#
DISCID=d00b4c0f
DTITLE=Maycon and Renato - Novinha
DYEAR=2011
DGENRE=Country
TTITLE0=Novinha
TTITLE1=Pela metade
TTITLE2=Tem que ser agora
TTITLE3=Eu acho e pouco
TTITLE4=Prisioneiro do meu coracao
TTITLE5=Assim nao vai rolar
TTITLE6=To caindo fora
TTITLE7=Feirto o vento
TTITLE8=Chora chora
TTITLE9=Vida leva eu
TTITLE10=Me perdeu
TTITLE11=Eu quero e paz
TTITLE12=Mania de querer - Vida pelo avesso
TTITLE13=Palacios e castelos
TTITLE14=Alucinado na paixao
EXTD=
EXTT0=
EXTT1=
EXTT2=
EXTT3=
EXTT4=
EXTT5=
EXTT6=
EXTT7=
EXTT8=
EXTT9=
EXTT10=
EXTT11=
EXTT12=
EXTT13=
EXTT14=
PLAYORDER=
